<svg xmlns="http://www.w3.org/2000/svg" xml:space="preserve" fill-rule="nonzero" clip-rule="evenodd" stroke-linecap="round" stroke-linejoin="round" viewBox="0 0 88 31">
	<path d="M0 0h88v31h-88z" fill="#fff" />
	<g fill="#56170e">
		<path d="M0 0h88v31h-88zm1 1h86v29h-86z" fill-rule="evenodd" />
		<path d="m42.11,4.94l-.82-.33v-1.53l4.3-.08v1.54l-.8.3l-2.52,9.06h-2.96l-1.61-6.1l-1.68,6.1h-2.92l-2.33-8.96l-.77-.34v-1.52l4.56-.08v1.54l-.63.31l.93,4.8l1.62-6.57l2.89-.08l1.62,6.73l1.12-4.8zm4.7.03l-.92-.36v-1.53l4-.08h4.1v3.1h-1.85l-.24-.87h-1.94v2.07h2.75v2.15h-2.75v2.23h2.12l.25-1.02h1.84l-.03,3.24h-8.25v-1.53l.93-.37v-7.03zm9.16.02l-.92-.38v-1.53l4.99-.08v1.54l-.92.44v7.01l.92.38v1.53h-5v-1.53l.93-.37v-7.01zm5.73-.02l-.93-.36v-1.53l4.2-.08h1.2c1.3,0,2.27.27,2.93.81c.67.55,1,1.32,1,2.34c0,.88-.27,1.61-.8,2.2c-.35.4-.85.7-1.49.9c.24.08.44.2.6.35c.17.17.32.36.44.59l1.02,1.87l.78.3v1.54h-3.13l-1.37-2.88l-.39-.8c-.09-.18-.2-.29-.3-.34c-.13-.05-.31-.07-.57-.06h-.05v2.18l.92.37v1.53h-4.99v-1.53l.93-.36v-7.04zm3.14,2.71h.59c.5,0,.88-.1,1.12-.33c.23-.22.35-.55.35-.99c0-.34-.09-.62-.27-.83c-.18-.21-.47-.32-.87-.32h-.92v2.47zm7.26-2.7l-.93-.37v-1.53l4.07-.08h1c.83,0,1.56.11,2.2.34a4,4,0,0,1,2.55,2.65c.22.65.33,1.4.33,2.25c0,1.22-.21,2.26-.64,3.1a4.37,4.37,0,0,1-1.87,1.91c-.81.44-1.8.65-2.95.65h-4.69v-1.53l.92-.37v-7.02zm3.14,6.7h.77c.2,0,.41-.02.63-.06c.23-.05.43-.16.63-.35c.2-.19.37-.51.49-.96c.12-.45.18-1.08.18-1.9c0-.8-.06-1.42-.17-1.85a2.07,2.07,0,0,0-.46-.93c-.18-.19-.38-.3-.58-.34a2.9,2.9,0,0,0-.57-.06h-.92v6.45zm-33.13,7.62l-.82-.33v-1.54l4.3-.07v1.53l-.8.3l-2.52,9.07h-2.96l-1.61-6.1l-1.68,6.1h-2.92l-2.33-8.97l-.77-.32v-1.54l4.56-.07v1.53l-.63.32l.93,4.79l1.62-6.57l2.89-.07l1.62,6.72l1.12-4.79zm12.69,7.17l.57.25v1.54h-4.8v-1.54l.7-.31l-.25-.91h-2.88l-.27.87l.79.35v1.54h-4.27v-1.54l.6-.26l3.38-9.07l3.24-.08l3.2,9.16zm-6-3.12h1.66l-.74-3.03l-.92,3.03zm12.9-4.04l-.79-.34v-1.54l4.38-.07v1.53l-.72.29l-3.23,9.08h-3.34l-3.07-9.01l-.71-.28v-1.54l5.02-.07v1.53l-.8.33l1.52,5.59l1.74-5.5zm4.82.02l-.92-.36v-1.54l3.99-.07h4.1v3.1h-1.84l-.25-.88h-1.93v2.08h2.74v2.15h-2.74v2.22h2.1l.26-1.01h1.84l-.03,3.24h-8.24v-1.54l.92-.37v-7.02zm10.68,6.6a4,4,0,0,0,2.3.21c.22-.06.4-.16.53-.28c.13-.13.2-.3.2-.49c0-.24-.1-.44-.28-.6a2.66,2.66,0,0,0-.76-.4c-.32-.12-.67-.24-1.05-.35a10.2,10.2,0,0,1-1.13-.41a4.5,4.5,0,0,1-1.05-.63a2.81,2.81,0,0,1-1.04-2.4c0-.79.18-1.43.56-1.94c.37-.5.88-.89,1.52-1.14a5.88,5.88,0,0,1,2.16-.37a11.35,11.35,0,0,1,3.72.7l-.2,3h-1.85l-.35-1.29a4.19,4.19,0,0,0-1.83-.06c-.22.05-.39.13-.52.24a.57.57,0,0,0-.19.45c0,.21.1.4.3.54c.19.15.44.28.76.4l1.05.36c.39.13.77.27,1.15.45c.38.17.72.39,1.04.65c.32.26.58.59.77.98c.2.38.3.86.3,1.4c0,.83-.22,1.5-.65,2.02c-.42.52-.99.9-1.7,1.16c-.71.25-1.5.38-2.36.38a10.24,10.24,0,0,1-3.59-.65l.08-3.3h1.8l.3,1.37z" />
	</g>
	<path d="M10 14c1.65 0 3 1.35 3 3 0-1.65 1.35-3 3-3s3 1.35 3 3c0-1.65 1.35-3 3-3" fill="none" stroke="#da2c43" stroke-width="2" />
	<path d="M10 10c0-3.3 2.7-6 6-6s6 2.7 6 6v5c0 3.3-2.7 6-6 6s-6-2.7-6-6Zm12 4h3v1c0 4.94-4.06 9-9 9s-9-4.06-9-9v-1h3m6 10v3m-4 0h8" fill="none" stroke="#404040" stroke-width="2" />
</svg>
