<svg xmlns="http://www.w3.org/2000/svg" xml:space="preserve" fill-rule="nonzero" clip-rule="evenodd" stroke-linecap="round" stroke-linejoin="round" viewBox="0 0 88 31">
	<path d="M0 0h88v31h-88z" fill="#180000" />
	<g fill="#f8f095">
		<path d="M0 0h88v31h-88zm1 1h86v29h-86z" fill-rule="evenodd" />
		<path d="m45,3l-3.5,10.9h-4.5l0-7.9l-2.4,7.8h-4.6v-10.8h3.6l-.6,8.5l2.6-8.5h3.8l-.3,8.5l2.4-8.5h3.5zm8.8,0l-.7,2.2h-4l-.4,2h3.5l-.2,2.3h-3.5l-.4,2.2h4.4l-.5,2.3h-7.9l1.7-11h8zm4.7,0l-1.7,10.9h-3.6l1.7-10.9h3.6zm10.7,3c0,.7-.2,1.4-.5,2c-.4.5-1,1-2.1,1.5l2.2,4.4h-4l-1.6-4h-.7l-.6,4h-3.6l1.7-10.9h4.5c1.5,0,2.7.3,3.5.8c.8.6,1.2,1.3,1.2,2.2zm-6.2,1.8h.9c.6,0,1-.1,1.3-.4c.3-.4.4-.8.4-1.2c0-.7-.5-1-1.4-1h-.8l-.4,2.6zm11.8-4.8c1.7,0,3.1.3,4.2,1c1,.5,1.5,1.6,1.5,3.1a7,7,0,0,1-1.5,4.9c-1.2,1.2-3,1.9-5.6,1.9h-4l1.4-10.9h3.9zm-.6,2.3l-1,6.3h.7c1,0,1.8-.4,2.3-1.3c.4-1,.6-2,.6-3.2c0-.7-.1-1.1-.4-1.4c-.3-.3-.8-.4-1.5-.4h-.7zm-29.2,11.7l-3.5,10.9h-4.5l0-7.9l-2.4,7.8h-4.6v-10.8h3.6l-.6,8.5l2.6-8.5h3.8l-.3,8.5l2.4-8.5h3.5zm5.4,10.9v-2.1h-3l-.8,2h-3.6l5-10.8h4.3l1.8,10.9h-3.8zm-2.2-4.4h2l-.3-4.5l-1.7,4.5zm17.5-6.5l-4.7,10.9h-4.6l-1.7-10.9h3.8l.5,8.6l3-8.6h3.7zm8.3,0l-.7,2.2h-4l-.3,2h3.5l-.4,2.2h-3.5l-.3,2.2h4.3l-.4,2.3h-7.9l1.7-10.9h8zm5.3-.3c1.8,0,3.3.5,4.4,1.5l-1.8,1.6c-.8-.5-1.6-.8-2.5-.8a2,2,0,0,0-1,.2c-.3.2-.5.4-.5.6c0,.2,0,.4.2.5l.6.3l1.2.4c1,.3,1.8.7,2.3,1.2c.5.5.8,1.2.8,2c0,.6-.2,1.3-.6,1.9a4,4,0,0,1-1.7,1.5c-.9.4-2,.6-3.3.6c-1,0-2-.2-2.7-.5c-.8-.3-1.5-.7-2-1.2l2-1.8c.8.7,1.7,1,2.8,1c.6,0,1,0,1.3-.2c.3-.2.4-.4.4-.8c0-.3-.1-.5-.4-.7c-.2-.2-.7-.4-1.4-.6a6,6,0,0,1-2.5-1.3c-.5-.5-.8-1.1-.8-1.8s.2-1.2.6-1.8c.4-.5,1-1,1.7-1.3c.8-.3,1.7-.5,2.9-.5z" />
	</g>
	<path d="M10 14c1.65 0 3 1.35 3 3 0-1.65 1.35-3 3-3s3 1.35 3 3c0-1.65 1.35-3 3-3" fill="none" stroke="#fe1" stroke-width="2" />
	<path d="M10 10c0-3.3 2.7-6 6-6s6 2.7 6 6v5c0 3.3-2.7 6-6 6s-6-2.7-6-6Zm12 4h3v1c0 4.94-4.06 9-9 9s-9-4.06-9-9v-1h3m6 10v3m-4 0h8" fill="none" stroke="#ff6900" stroke-width="2" />
</svg>
